<svg width="172" height="29" viewBox="0 0 172 29" fill="none" xmlns="http://www.w3.org/2000/svg">
<g style="mix-blend-mode:luminosity" clip-path="url(#clip0_1_330)">
<g style="mix-blend-mode:hard-light">
<path d="M13.6045 12.4638C16.5198 11.7234 19.7994 9.62553 19.7994 6.04681C19.7994 0.740425 14.8192 0.740426 12.2684 0.740426L1.82203 0.740426C2.30791 0.987234 2.55085 2.34468 2.55085 4.19574C2.55085 6.41702 2.42938 9.50213 2.06497 13.6979L1.9435 15.4255C1.45763 22.7064 1.21469 26.9021 0 27.8894H9.35311C16.5198 27.8894 20.8927 24.1872 20.8927 19.3745C21.0141 14.9319 17.8559 12.9574 13.6045 12.4638ZM7.4096 9.74894C7.53107 7.77447 7.77401 5.8 8.01695 3.94894C8.62429 3.82553 9.35311 3.82553 9.83898 3.82553C12.9972 3.82553 14.4548 5.18298 14.4548 7.03404C14.4548 10.2426 11.2966 11.4766 7.89548 11.4766H7.28814L7.4096 9.74894ZM9.11017 24.434C7.28814 24.434 6.55932 23.9404 6.55932 23.6936C6.55932 21.966 6.68079 20.6085 6.80226 18.7574L7.0452 14.8085H8.9887C12.5113 14.8085 15.3051 15.9191 15.3051 19.4979C15.3051 22.7064 12.8757 24.434 9.11017 24.434ZM166.048 12.0936C163.376 10.366 160.825 8.88511 160.825 6.91064C160.825 4.44255 162.89 3.45532 165.198 3.45532C167.87 3.45532 170.178 5.05957 171.271 7.03404L172 0.617021C170.178 0.617021 168.356 0.123404 165.441 0.123404C160.46 0.123404 155.602 2.09787 155.602 7.89787C155.602 11.8468 158.395 13.9447 162.768 16.6596C164.833 17.8936 166.534 19.2511 166.534 21.2255C166.534 23.6936 164.469 25.0511 161.675 25.0511C158.031 25.0511 155.602 22.9532 154.266 20.1149L153.78 26.9021C156.573 28.0128 159.003 28.383 161.311 28.383C167.02 28.383 171.879 25.1745 171.879 20.1149C171.879 16.166 168.963 13.9447 166.048 12.0936ZM146.977 13.2043C148.314 10.983 154.508 0.987234 155.966 0.740426L148.799 0.740426C149.042 0.987234 149.164 1.72766 149.164 2.34468C149.164 3.20851 148.799 3.94894 148.435 4.68936C146.734 7.40425 145.52 9.50213 143.576 12.3404C142.847 10.1191 141.511 7.15745 139.811 3.08511C138.718 0.617021 138.232 0.370213 136.41 0.370213C135.438 0.370213 133.251 0.493617 131.672 0.617021C132.644 1.11064 134.102 3.45532 135.438 5.9234C137.503 9.87234 138.839 13.2043 139.811 16.6596C139.932 19.0043 139.325 26.6553 138.11 27.8894H145.398C144.791 27.2723 144.669 25.6681 144.669 24.434C144.669 21.4723 144.912 18.7574 145.277 16.783C145.52 15.6723 146.37 14.3149 146.977 13.2043ZM68.387 23.3234L62.9209 15.9191C62.5565 15.4255 61.9492 14.5617 61.5847 14.3149C65.1073 13.2043 68.0226 10.8596 68.0226 6.54043C68.0226 1.23404 63.5282 0.740426 60.3701 0.740426L50.4096 0.740426C50.8955 0.987234 51.1384 2.22128 51.1384 4.19574C51.1384 6.41702 51.0169 9.50213 50.6525 13.6979L50.5311 15.4255C49.9237 23.817 49.5593 27.0255 48.4661 27.8894H55.7542C55.2684 27.6426 55.0254 26.2851 55.0254 24.434C55.0254 22.8298 55.1469 20.6085 55.2684 17.7702L55.3898 15.7957H55.5113C56.4831 15.7957 56.8475 16.4128 57.4548 17.1532L64.9859 27.766C65.5932 28.6298 66.0791 29 68.1441 29C69.4802 29 71.5452 28.8766 73.0028 28.7532C72.1525 28.1362 71.7881 27.8894 68.387 23.3234ZM57.0904 12.3404C56.726 12.3404 56.2401 12.3404 55.8757 12.217L55.9972 10.366C56.2401 7.15745 56.3616 5.05957 56.6045 3.94894C57.2119 3.82553 58.0621 3.82553 58.6695 3.82553C61.2203 3.82553 62.678 5.05957 62.678 7.15745C62.678 10.366 60.3701 12.3404 57.0904 12.3404ZM42.1497 15.6723L41.0565 11.4766C39.7203 6.54043 38.1412 0.740426 38.1412 0.740426L32.3107 0.740426C32.5537 0.987234 32.6751 1.60426 32.6751 2.22128C32.6751 2.8383 30.8531 6.91064 29.1525 10.6128L27.3305 14.6851C24.0508 21.7191 21.7429 26.0383 19.9209 27.8894H26.3588C26.2373 27.6426 26.2373 27.0255 26.2373 26.6553C26.2373 25.1745 27.5734 22.583 28.0593 21.3489L28.6667 20.2383H31.8249C34.9831 20.2383 36.9266 19.8681 38.1412 19.3745L38.7486 21.7191C40.5706 28.1362 40.8136 28.2596 43.1215 28.2596C43.8503 28.2596 45.6723 28.1362 47.2514 28.0128C45.4294 26.4085 44.2147 22.9532 42.1497 15.6723ZM30.1243 16.4128L34.4972 6.91064L37.1695 16.4128H30.1243ZM77.2542 15.0553C77.2542 9.62553 79.5621 3.33191 85.2712 3.33191C88.1864 3.33191 90.3729 4.93617 91.5876 7.40425L92.3164 0.493617C90.0085 0.493617 88.6723 0 85.7571 0C76.5254 0 71.6667 7.03404 71.6667 16.0426C71.6667 22.583 75.6751 28.383 82.5989 28.383C87.9435 28.383 91.1017 25.6681 92.5593 21.1021C89.1582 23.5702 87.0932 24.1872 84.7853 24.1872C80.5339 24.1872 77.2542 20.9787 77.2542 15.0553ZM129.364 15.6723L128.271 11.4766C127.785 9.62553 125.356 0.740426 125.356 0.740426L119.525 0.740426C119.768 0.987234 119.89 1.60426 119.89 2.22128C119.89 2.9617 118.189 6.78723 116.367 10.6128L114.545 14.6851C113.209 17.7702 111.751 20.6085 110.415 22.9532C108.35 24.3106 107.257 24.434 102.884 24.434C101.669 24.434 101.184 24.1872 101.184 22.9532C101.184 20.2383 101.548 17.5234 101.669 14.8085L101.791 13.2043C102.277 5.9234 102.641 1.48085 103.734 0.86383L96.4463 0.86383C96.9322 1.48085 97.0537 2.46809 97.1751 4.31915C97.1751 6.54043 97.0537 9.62553 96.6893 13.8213L96.5678 15.5489C96.0819 22.8298 95.7175 26.7787 94.6243 28.0128H113.573C113.452 27.766 113.452 27.1489 113.452 26.7787C113.452 25.2979 114.545 23.2 115.274 21.4723L115.881 20.3617H119.04C122.198 20.3617 124.141 19.9915 125.356 19.4979L125.963 21.8426C127.785 28.2596 128.028 28.383 130.336 28.383C131.065 28.383 133.008 28.2596 134.466 28.1362C132.523 26.4085 131.308 22.9532 129.364 15.6723ZM117.339 16.4128L121.712 6.91064L124.384 16.4128H117.339Z" fill="#00AEEF"/>
</g>
</g>
<defs>
<clipPath id="clip0_1_330">
<rect width="172" height="29" fill="white"/>
</clipPath>
</defs>
</svg>
