<svg width="30" height="30" viewBox="0 0 30 30" fill="none" xmlns="http://www.w3.org/2000/svg">
<path d="M15 21C11.6863 21 9 18.3137 9 15C9 11.6863 11.6863 9 15 9C18.3137 9 21 11.6863 21 15C21 18.3137 18.3137 21 15 21Z" fill="#1901F3"/>
<path d="M3.37623 17.0497C1.63748 17.3563 0.445659 19.0359 1.11311 20.6705C2.04495 22.9525 3.53158 24.9857 5.45889 26.5745C8.2148 28.8462 11.6908 30.0601 15.2618 29.9978C18.8328 29.9355 22.2644 28.601 24.9394 26.2344C26.81 24.5794 28.2248 22.4955 29.0765 20.1824C29.6865 18.5255 28.4367 16.8885 26.6883 16.6428C24.94 16.3971 23.3702 17.6697 22.5066 19.2097C22.0385 20.0444 21.4308 20.8017 20.7028 21.4458C19.168 22.8037 17.1991 23.5693 15.1503 23.6051C13.1014 23.6408 11.107 22.9444 9.5258 21.6409C8.7757 21.0226 8.142 20.287 7.64502 19.4691C6.72823 17.9602 5.11498 16.7431 3.37623 17.0497Z" fill="#AABB14"/>
<path d="M29.884 16.8745C29.9606 16.2604 30 15.6348 30 15C30 6.71573 23.2843 0 15 0C6.71573 0 0 6.71573 0 15C0 15.8147 0.06495 16.6142 0.18996 17.3937C0.87894 16.4505 1.95426 15.7772 3.11576 15.5724C4.37245 15.3508 5.51458 15.6556 6.48027 16.2253C6.42322 15.8251 6.3937 15.416 6.3937 15C6.3937 10.2469 10.2469 6.3937 15 6.3937C19.7531 6.3937 23.6063 10.2469 23.6063 15C23.6063 15.3134 23.5895 15.6229 23.5569 15.9276C24.5022 15.3243 25.6332 14.9796 26.8971 15.1573C28.0647 15.3214 29.1625 15.9564 29.884 16.8745Z" fill="#DBF301"/>
</svg>
