<svg width="171" height="48" viewBox="0 0 171 48" fill="none" xmlns="http://www.w3.org/2000/svg">
<g style="mix-blend-mode:luminosity">
<path d="M157.958 25.1177L160.603 18.1926L163.248 25.1177H157.958ZM163.339 14.2616H157.867L150.206 33.0713H154.949L156.682 28.4774H164.502L166.258 33.0713H171L163.339 14.2616ZM124.693 29.7801C121.592 29.7801 119.107 26.9918 119.107 23.5407C119.107 20.0896 121.615 17.3013 124.693 17.3013C127.771 17.3013 130.279 20.0896 130.279 23.5407C130.302 26.9918 127.794 29.7801 124.693 29.7801ZM124.693 13.5988C119.221 13.5988 114.775 18.0555 114.775 23.5407C114.775 29.0259 119.221 33.4827 124.693 33.4827C130.165 33.4827 134.611 29.0488 134.611 23.5636C134.611 18.0555 130.165 13.5988 124.693 13.5988ZM85.5912 29.7801C82.5132 29.7801 80.0052 26.9918 80.0052 23.5407C80.0052 20.0896 82.5132 17.3013 85.5912 17.3013C88.692 17.3013 91.2 20.0896 91.2 23.5407C91.2 26.9918 88.692 29.7801 85.5912 29.7801ZM85.5912 13.5988C80.1192 13.5988 75.696 18.0555 75.696 23.5407C75.696 29.0259 80.1192 33.4827 85.5912 33.4827C91.0632 33.4827 95.5092 29.0488 95.5092 23.5636C95.5092 18.0555 91.0632 13.5988 85.5912 13.5988ZM110.101 14.2616L105.245 21.8723L100.388 14.2616H95.646L103.17 26.0548V33.0713H107.342V26.0548L114.866 14.2616C114.844 14.2616 110.101 14.2616 110.101 14.2616ZM151.21 14.2616H135.181V17.8727H141.132V33.0713H145.304V17.8498H151.21V14.2616ZM58.7784 17.8498H64.7292V33.0484H68.9016V17.8498H74.8068V14.2616H58.7556V17.8498H58.7784Z" fill="#9C8F8F"/>
<path d="M47.0364 0H0V47.15H47.0364V0Z" fill="#EB0A1E"/>
<path d="M31.35 13.3245C29.1612 12.616 26.448 12.2046 23.5068 12.2046C20.5656 12.2046 17.8524 12.616 15.6636 13.3245C9.84962 15.1986 5.85962 19.084 5.85962 23.5636C5.85962 29.8716 13.7484 34.9911 23.484 34.9911C33.2196 34.9911 41.1084 29.8716 41.1084 23.5636C41.154 19.084 37.164 15.1986 31.35 13.3245ZM23.5068 30.1001C22.0476 30.1001 20.862 27.2432 20.7936 23.6321C21.66 23.7007 22.572 23.7464 23.5068 23.7464C24.4416 23.7464 25.3308 23.7007 26.22 23.6321C26.1516 27.2204 24.966 30.1001 23.5068 30.1001ZM20.976 20.7981C21.3636 18.2612 22.344 16.4785 23.5068 16.4785C24.6468 16.4785 25.6272 18.2612 26.0376 20.7981C25.2396 20.8667 24.3732 20.9124 23.5068 20.9124C22.6404 20.9124 21.7968 20.8895 20.976 20.7981ZM27.588 20.6153C26.9952 16.6385 25.3992 13.8044 23.5068 13.8044C21.6144 13.8044 20.0184 16.6385 19.4256 20.6153C15.846 20.0439 13.338 18.7868 13.338 17.3013C13.338 15.29 17.8752 13.6673 23.484 13.6673C29.0928 13.6673 33.63 15.29 33.63 17.3013C33.6756 18.7868 31.1676 20.0667 27.588 20.6153ZM8.45882 23.1522C8.45882 21.2095 9.21122 19.4039 10.488 17.8498C10.4652 17.9641 10.4652 18.0783 10.4652 18.1698C10.4652 20.6153 14.1132 22.6722 19.1976 23.4264C19.1976 23.6093 19.1976 23.7921 19.1976 23.975C19.1976 28.5003 20.4516 32.3399 22.1844 33.6655C14.478 33.2084 8.45882 28.6831 8.45882 23.1522ZM24.852 33.6655C26.5848 32.3399 27.8388 28.5003 27.8388 23.975C27.8388 23.7921 27.8388 23.6093 27.8388 23.4264C32.9232 22.6722 36.5712 20.5924 36.5712 18.1698C36.5712 18.0555 36.5712 17.9412 36.5484 17.8498C37.848 19.4039 38.5776 21.2323 38.5776 23.1522C38.5776 28.6831 32.5356 33.2084 24.852 33.6655Z" fill="white"/>
</g>
</svg>
